<?xml version="1.0" standalone="no"?>
<svg xmlns="http://www.w3.org/2000/svg" xmlns:xlink="http://www.w3.org/1999/xlink" width="611pt" height="332pt" viewBox="0.00 0.00 611.06 332.00">
<g id="graph0" class="graph" transform="translate(4,328) scale(1)" data-name="G">

<polygon fill="white" stroke="none" points="-4,4 -4,-328 607.06,-328 607.06,4 -4,4"/>
<!-- 0 -->
<g id="node1" class="node" pointer-events="visible" data-name="0">

<ellipse fill="white" stroke="black" cx="370.72" cy="-306" rx="27" ry="18"/>
<text text-anchor="middle" x="370.72" y="-301.8" font-family="Times,serif" font-size="14.00">root</text>
</g>
<!-- 1 -->
<g id="node2" class="node" pointer-events="visible" data-name="1">

<ellipse fill="#6496e1" stroke="black" cx="109.72" cy="-234" rx="63.13" ry="18"/>
<text text-anchor="middle" x="109.72" y="-229.8" font-family="Times,serif" font-size="14.00">add_numbers</text>
</g>
<!-- 0&#45;&gt;1 -->
<g id="edge5" class="edge" data-name="0-&gt;1">

<path fill="none" stroke="black" d="M346.16,-298.41C305,-287.37 221.09,-264.87 165.12,-249.86"/>
<polygon fill="black" stroke="black" points="166.34,-246.56 155.78,-247.35 164.53,-253.33 166.34,-246.56"/>
</g>
<!-- 6 -->
<g id="node7" class="node" pointer-events="visible" data-name="6">

<ellipse fill="#6496e1" stroke="black" cx="282.72" cy="-234" rx="92.06" ry="18"/>
<text text-anchor="middle" x="282.72" y="-229.8" font-family="Times,serif" font-size="14.00">subtraction_numbers</text>
</g>
<!-- 0&#45;&gt;6 -->
<g id="edge10" class="edge" data-name="0-&gt;6">

<path fill="none" stroke="black" d="M353.75,-291.5C342.11,-282.25 326.36,-269.72 312.65,-258.81"/>
<polygon fill="black" stroke="black" points="315.18,-256.35 305.18,-252.86 310.82,-261.83 315.18,-256.35"/>
</g>
<!-- 11 -->
<g id="node12" class="node" pointer-events="visible" data-name="11">

<ellipse fill="#6496e1" stroke="black" cx="458.72" cy="-234" rx="65.99" ry="18"/>
<text text-anchor="middle" x="458.72" y="-229.8" font-family="Times,serif" font-size="14.00">call_functions</text>
</g>
<!-- 0&#45;&gt;11 -->
<g id="edge11" class="edge" data-name="0-&gt;11">

<path fill="none" stroke="black" d="M387.68,-291.5C399.48,-282.12 415.52,-269.36 429.37,-258.35"/>
<polygon fill="black" stroke="black" points="431.25,-261.32 436.9,-252.35 426.89,-255.84 431.25,-261.32"/>
</g>
<!-- 17 -->
<g id="node18" class="node" pointer-events="visible" data-name="17">

<ellipse fill="#6496e1" stroke="black" cx="572.72" cy="-234" rx="30.19" ry="18"/>
<text text-anchor="middle" x="572.72" y="-229.8" font-family="Times,serif" font-size="14.00">main</text>
</g>
<!-- 0&#45;&gt;17 -->
<g id="edge17" class="edge" data-name="0-&gt;17">

<path fill="none" stroke="black" d="M395.27,-297.82C427.4,-288.25 485.31,-270.37 533.72,-252 535.47,-251.33 537.27,-250.63 539.07,-249.91"/>
<polygon fill="black" stroke="black" points="540.08,-253.28 547.96,-246.2 537.38,-246.82 540.08,-253.28"/>
</g>
<!-- 2 -->
<g id="node3" class="node" pointer-events="visible" data-name="2">

<ellipse fill="rgb(226, 120, 230)" stroke="black" cx="35.72" cy="-162" rx="35.93" ry="18"/>
<text text-anchor="middle" x="35.72" y="-157.8" font-family="Times,serif" font-size="14.00">x : i32</text>
</g>
<!-- 1&#45;&gt;2 -->
<g id="edge1" class="edge" data-name="1-&gt;2">

<path fill="none" stroke="black" d="M92.18,-216.41C82.7,-207.44 70.83,-196.21 60.42,-186.37"/>
<polygon fill="black" stroke="black" points="62.88,-183.88 53.21,-179.55 58.07,-188.97 62.88,-183.88"/>
</g>
<!-- 4 -->
<g id="node5" class="node" pointer-events="visible" data-name="4">

<ellipse fill="rgb(226, 120, 230)" stroke="black" cx="124.72" cy="-162" rx="35.93" ry="18"/>
<text text-anchor="middle" x="124.72" y="-157.8" font-family="Times,serif" font-size="14.00">y : i32</text>
</g>
<!-- 1&#45;&gt;4 -->
<g id="edge3" class="edge" data-name="1-&gt;4">

<path fill="none" stroke="black" d="M113.42,-215.7C115,-208.32 116.89,-199.52 118.66,-191.25"/>
<polygon fill="black" stroke="black" points="122.06,-192.1 120.73,-181.58 115.22,-190.63 122.06,-192.1"/>
</g>
<!-- 3 -->
<g id="node4" class="node" pointer-events="visible" data-name="3">

<ellipse fill="rgb(71, 223, 185)" stroke="black" cx="35.72" cy="-90" rx="27" ry="18"/>
<text text-anchor="middle" x="35.72" y="-85.8" font-family="Times,serif" font-size="14.00">i32</text>
</g>
<!-- 2&#45;&gt;3 -->
<g id="edge2" class="edge" data-name="2-&gt;3">

<path fill="none" stroke="black" d="M35.72,-143.7C35.72,-136.41 35.72,-127.73 35.72,-119.54"/>
<polygon fill="black" stroke="black" points="39.22,-119.62 35.72,-109.62 32.22,-119.62 39.22,-119.62"/>
</g>
<!-- 5 -->
<g id="node6" class="node" pointer-events="visible" data-name="5">

<ellipse fill="rgb(71, 223, 185)" stroke="black" cx="124.72" cy="-90" rx="27" ry="18"/>
<text text-anchor="middle" x="124.72" y="-85.8" font-family="Times,serif" font-size="14.00">i32</text>
</g>
<!-- 4&#45;&gt;5 -->
<g id="edge4" class="edge" data-name="4-&gt;5">

<path fill="none" stroke="black" d="M124.72,-143.7C124.72,-136.41 124.72,-127.73 124.72,-119.54"/>
<polygon fill="black" stroke="black" points="128.22,-119.62 124.72,-109.62 121.22,-119.62 128.22,-119.62"/>
</g>
<!-- 7 -->
<g id="node8" class="node" pointer-events="visible" data-name="7">

<ellipse fill="rgb(226, 120, 230)" stroke="black" cx="242.72" cy="-162" rx="35.93" ry="18"/>
<text text-anchor="middle" x="242.72" y="-157.8" font-family="Times,serif" font-size="14.00">x : i32</text>
</g>
<!-- 6&#45;&gt;7 -->
<g id="edge6" class="edge" data-name="6-&gt;7">

<path fill="none" stroke="black" d="M272.83,-215.7C268.31,-207.78 262.85,-198.23 257.83,-189.44"/>
<polygon fill="black" stroke="black" points="260.97,-187.88 252.97,-180.94 254.89,-191.36 260.97,-187.88"/>
</g>
<!-- 9 -->
<g id="node10" class="node" pointer-events="visible" data-name="9">

<ellipse fill="rgb(226, 120, 230)" stroke="black" cx="331.72" cy="-162" rx="35.93" ry="18"/>
<text text-anchor="middle" x="331.72" y="-157.8" font-family="Times,serif" font-size="14.00">y : i32</text>
</g>
<!-- 6&#45;&gt;9 -->
<g id="edge8" class="edge" data-name="6-&gt;9">

<path fill="none" stroke="black" d="M294.83,-215.7C300.57,-207.49 307.55,-197.52 313.88,-188.48"/>
<polygon fill="black" stroke="black" points="316.68,-190.58 319.55,-180.38 310.95,-186.57 316.68,-190.58"/>
</g>
<!-- 8 -->
<g id="node9" class="node" pointer-events="visible" data-name="8">

<ellipse fill="rgb(71, 223, 185)" stroke="black" cx="242.72" cy="-90" rx="27" ry="18"/>
<text text-anchor="middle" x="242.72" y="-85.8" font-family="Times,serif" font-size="14.00">i32</text>
</g>
<!-- 7&#45;&gt;8 -->
<g id="edge7" class="edge" data-name="7-&gt;8">

<path fill="none" stroke="black" d="M242.72,-143.7C242.72,-136.41 242.72,-127.73 242.72,-119.54"/>
<polygon fill="black" stroke="black" points="246.22,-119.62 242.72,-109.62 239.22,-119.62 246.22,-119.62"/>
</g>
<!-- 10 -->
<g id="node11" class="node" pointer-events="visible" data-name="10">

<ellipse fill="rgb(71, 223, 185)" stroke="black" cx="331.72" cy="-90" rx="27" ry="18"/>
<text text-anchor="middle" x="331.72" y="-85.8" font-family="Times,serif" font-size="14.00">i32</text>
</g>
<!-- 9&#45;&gt;10 -->
<g id="edge9" class="edge" data-name="9-&gt;10">

<path fill="none" stroke="black" d="M331.72,-143.7C331.72,-136.41 331.72,-127.73 331.72,-119.54"/>
<polygon fill="black" stroke="black" points="335.22,-119.62 331.72,-109.62 328.22,-119.62 335.22,-119.62"/>
</g>
<!-- 12 -->
<g id="node13" class="node" pointer-events="visible" data-name="12">

<ellipse fill="rgb(100, 150, 225)" stroke="black" cx="458.72" cy="-162" rx="59.11" ry="18"/>
<text text-anchor="middle" x="458.72" y="-157.8" font-family="Times,serif" font-size="14.00">internal_add</text>
</g>
<!-- 11&#45;&gt;12 -->
<g id="edge16" class="edge" data-name="11-&gt;12">

<path fill="none" stroke="black" d="M458.72,-215.7C458.72,-208.41 458.72,-199.73 458.72,-191.54"/>
<polygon fill="black" stroke="black" points="462.22,-191.62 458.72,-181.62 455.22,-191.62 462.22,-191.62"/>
</g>
<!-- 13 -->
<g id="node14" class="node" pointer-events="visible" data-name="13">

<ellipse fill="rgb(226, 120, 230)" stroke="black" cx="437.72" cy="-90" rx="40.01" ry="18"/>
<text text-anchor="middle" x="437.72" y="-85.8" font-family="Times,serif" font-size="14.00">xa : i32</text>
</g>
<!-- 12&#45;&gt;13 -->
<g id="edge12" class="edge" data-name="12-&gt;13">

<path fill="none" stroke="black" d="M453.53,-143.7C451.29,-136.24 448.61,-127.32 446.11,-118.97"/>
<polygon fill="black" stroke="black" points="449.51,-118.13 443.28,-109.55 442.8,-120.14 449.51,-118.13"/>
</g>
<!-- 15 -->
<g id="node16" class="node" pointer-events="visible" data-name="15">

<ellipse fill="rgb(226, 120, 230)" stroke="black" cx="535.72" cy="-90" rx="40.01" ry="18"/>
<text text-anchor="middle" x="535.72" y="-85.8" font-family="Times,serif" font-size="14.00">ya : i32</text>
</g>
<!-- 12&#45;&gt;15 -->
<g id="edge14" class="edge" data-name="12-&gt;15">

<path fill="none" stroke="black" d="M476.96,-144.41C486.93,-135.35 499.43,-123.99 510.33,-114.08"/>
<polygon fill="black" stroke="black" points="512.49,-116.85 517.53,-107.53 507.78,-111.67 512.49,-116.85"/>
</g>
<!-- 14 -->
<g id="node15" class="node" pointer-events="visible" data-name="14">

<ellipse fill="rgb(71, 223, 185)" stroke="black" cx="437.72" cy="-18" rx="27" ry="18"/>
<text text-anchor="middle" x="437.72" y="-13.8" font-family="Times,serif" font-size="14.00">i32</text>
</g>
<!-- 13&#45;&gt;14 -->
<g id="edge13" class="edge" data-name="13-&gt;14">

<path fill="none" stroke="black" d="M437.72,-71.7C437.72,-64.41 437.72,-55.73 437.72,-47.54"/>
<polygon fill="black" stroke="black" points="441.22,-47.62 437.72,-37.62 434.22,-47.62 441.22,-47.62"/>
</g>
<!-- 16 -->
<g id="node17" class="node" pointer-events="visible" data-name="16">

<ellipse fill="rgb(71, 223, 185)" stroke="black" cx="535.72" cy="-18" rx="27" ry="18"/>
<text text-anchor="middle" x="535.72" y="-13.8" font-family="Times,serif" font-size="14.00">i32</text>
</g>
<!-- 15&#45;&gt;16 -->
<g id="edge15" class="edge" data-name="15-&gt;16">

<path fill="none" stroke="black" d="M535.72,-71.7C535.72,-64.41 535.72,-55.73 535.72,-47.54"/>
<polygon fill="black" stroke="black" points="539.22,-47.62 535.72,-37.62 532.22,-47.62 539.22,-47.62"/>
</g>
</g>
</svg>