<?xml version="1.0" standalone="no"?>
<svg xmlns="http://www.w3.org/2000/svg" xmlns:xlink="http://www.w3.org/1999/xlink" width="675pt" height="332pt" viewBox="0.00 0.00 674.89 332">
<g id="graph0" class="graph" transform="translate(-113.61616068771889,379.41971932106327) scale(1.258757173504857)" data-name="">

<polygon fill="white" stroke="none" points="-4,4 -4,-328 670.89,-328 670.89,4 -4,4"/>
<!-- 0 -->
<g id="node1" class="node" pointer-events="visible" data-name="0">

<ellipse fill="white" stroke="black" cx="397.89" cy="-306" rx="27" ry="18"/>
<text text-anchor="middle" x="397.89" y="-301.8" font-family="Times,serif" font-size="14.00">root</text>
</g>
<!-- 1 -->
<g id="node2" class="node" pointer-events="visible" data-name="1">

<polygon fill="#84b6ff" stroke="black" points="185.82,-246 93.97,-246 93.97,-222 185.82,-222 185.82,-246"/>
<polyline fill="none" stroke="black" points="96.97,-232.5 99.97,-235.5"/>
<polyline fill="none" stroke="black" points="96.97,-225 182.82,-225"/>
<text text-anchor="middle" x="139.89" y="-229.8" font-family="Times,serif" font-size="14.00">add_numbers</text><polyline fill="none" stroke="black" points="96.97,-235.5 99.97,-232.5"/>

</g>
<!-- 0&#45;&gt;1 -->
<g id="edge1" class="edge" data-name="0-&gt;1">

<path fill="none" stroke="black" d="M373.16,-298.29C332.92,-287.37 252.26,-265.49 197.18,-250.54"/>
<polygon fill="black" stroke="black" points="198.21,-247.2 187.64,-247.95 196.38,-253.95 198.21,-247.2"/>
</g>
<!-- 7 -->
<g id="node8" class="node" pointer-events="visible" data-name="7">

<polygon fill="#84b6ff" stroke="black" points="392.82,-246 258.97,-246 258.97,-222 392.82,-222 392.82,-246"/>
<polyline fill="none" stroke="black" points="261.97,-232.5 264.97,-235.5"/>
<polyline fill="none" stroke="black" points="261.97,-225 389.82,-225"/>
<text text-anchor="middle" x="325.89" y="-229.8" font-family="Times,serif" font-size="14.00">subtraction_numbers</text><polyline fill="none" stroke="black" points="261.97,-235.5 264.97,-232.5"/>

</g>
<!-- 0&#45;&gt;7 -->
<g id="edge7" class="edge" data-name="0-&gt;7">

<path fill="none" stroke="black" d="M382.98,-290.5C374.01,-281.77 362.34,-270.43 351.89,-260.28"/>
<polygon fill="black" stroke="black" points="354.55,-257.97 344.94,-253.51 349.67,-262.99 354.55,-257.97"/>
</g>
<!-- 13 -->
<g id="node14" class="node" pointer-events="visible" data-name="13">

<polygon fill="#84b6ff" stroke="black" points="511.71,-246 416.08,-246 416.08,-222 511.71,-222 511.71,-246"/>
<polyline fill="none" stroke="black" points="419.08,-232.5 422.08,-235.5"/>
<polyline fill="none" stroke="black" points="419.08,-225 508.71,-225"/>
<text text-anchor="middle" x="463.89" y="-229.8" font-family="Times,serif" font-size="14.00">call_functions</text><polyline fill="none" stroke="black" points="419.08,-235.5 422.08,-232.5"/>

</g>
<!-- 0&#45;&gt;13 -->
<g id="edge13" class="edge" data-name="0-&gt;13">

<path fill="none" stroke="black" d="M411.89,-290.15C419.97,-281.59 430.35,-270.58 439.71,-260.65"/>
<polygon fill="black" stroke="black" points="442.24,-263.07 446.55,-253.39 437.15,-258.27 442.24,-263.07"/>
</g>
<!-- 21 -->
<g id="node22" class="node" pointer-events="visible" data-name="21">

<polygon fill="#84b6ff" stroke="black" points="624.89,-246 570.89,-246 570.89,-222 624.89,-222 624.89,-246"/>
<polyline fill="none" stroke="black" points="573.89,-232.5 576.89,-235.5"/>
<polyline fill="none" stroke="black" points="573.89,-225 621.89,-225"/>
<text text-anchor="middle" x="597.89" y="-229.8" font-family="Times,serif" font-size="14.00">main</text><polyline fill="none" stroke="black" points="573.89,-235.5 576.89,-232.5"/>

</g>
<!-- 0&#45;&gt;21 -->
<g id="edge21" class="edge" data-name="0-&gt;21">

<path fill="none" stroke="black" d="M421.62,-296.7C455.77,-284.74 519.12,-262.57 559.84,-248.32"/>
<polygon fill="black" stroke="black" points="560.98,-251.63 569.26,-245.02 558.67,-245.02 560.98,-251.63"/>
</g>
<!-- 2 -->
<g id="node3" class="node" pointer-events="visible" data-name="2">

<polygon fill="#e278e6" stroke="black" points="57.89,-180 3.89,-180 3.89,-176 -0.11,-176 -0.11,-172 3.89,-172 3.89,-152 -0.11,-152 -0.11,-148 3.89,-148 3.89,-144 57.89,-144 57.89,-180"/>
<polyline fill="none" stroke="black" points="3.89,-152 7.89,-152 7.89,-148 3.89,-148"/>
<text text-anchor="middle" x="30.89" y="-157.8" font-family="Times,serif" font-size="14.00">x : i32</text><polyline fill="none" stroke="black" points="3.89,-176 7.89,-176 7.89,-172 3.89,-172"/>

</g>
<!-- 1&#45;&gt;2 -->
<g id="edge2" class="edge" data-name="1-&gt;2">

<path fill="none" stroke="black" d="M112.67,-215.52C98.91,-206.68 82.03,-195.84 67.18,-186.3"/>
<polygon fill="black" stroke="black" points="69.35,-183.54 59.05,-181.08 65.57,-189.43 69.35,-183.54"/>
</g>
<!-- 4 -->
<g id="node5" class="node" pointer-events="visible" data-name="4">

<polygon fill="#e278e6" stroke="black" points="130.89,-180 76.89,-180 76.89,-176 72.89,-176 72.89,-172 76.89,-172 76.89,-152 72.89,-152 72.89,-148 76.89,-148 76.89,-144 130.89,-144 130.89,-180"/>
<polyline fill="none" stroke="black" points="76.89,-152 80.89,-152 80.89,-148 76.89,-148"/>
<text text-anchor="middle" x="103.89" y="-157.8" font-family="Times,serif" font-size="14.00">y : i32</text><polyline fill="none" stroke="black" points="76.89,-176 80.89,-176 80.89,-172 76.89,-172"/>

</g>
<!-- 1&#45;&gt;4 -->
<g id="edge4" class="edge" data-name="1-&gt;4">

<path fill="none" stroke="black" d="M131,-215.7C127.03,-207.98 122.26,-198.71 117.84,-190.11"/>
<polygon fill="black" stroke="black" points="121.07,-188.74 113.38,-181.45 114.84,-191.94 121.07,-188.74"/>
</g>
<!-- 6 -->
<g id="node7" class="node" pointer-events="visible" data-name="6">

<polygon fill="#b9e2b9" stroke="black" points="184.89,-174 148.89,-174 148.89,-150 184.89,-150 184.89,-144 202.89,-162 184.89,-180 184.89,-174"/>
<text text-anchor="middle" x="175.89" y="-157.8" font-family="Times,serif" font-size="14.00">i32</text>
</g>
<!-- 1&#45;&gt;6 -->
<g id="edge6" class="edge" data-name="1-&gt;6">

<path fill="none" stroke="black" d="M148.79,-215.7C152.76,-207.98 157.53,-198.71 161.95,-190.11"/>
<polygon fill="black" stroke="black" points="164.95,-191.94 166.41,-181.45 158.72,-188.74 164.95,-191.94"/>
</g>
<!-- 3 -->
<g id="node4" class="node" pointer-events="visible" data-name="3">

<polygon fill="#47dfb9" stroke="black" points="0.1,-84.44 28.89,-72 57.69,-84.44 57.66,-104.56 0.13,-104.56 0.1,-84.44"/>
<text text-anchor="middle" x="28.89" y="-85.8" font-family="Times,serif" font-size="14.00">i32</text>
</g>
<!-- 2&#45;&gt;3 -->
<g id="edge3" class="edge" data-name="2-&gt;3">

<path fill="none" stroke="black" d="M30.4,-143.7C30.16,-135.36 29.87,-125.22 29.61,-116.06"/>
<polygon fill="black" stroke="black" points="33.12,-116.23 29.33,-106.34 26.12,-116.43 33.12,-116.23"/>
</g>
<!-- 5 -->
<g id="node6" class="node" pointer-events="visible" data-name="5">

<polygon fill="#47dfb9" stroke="black" points="76.1,-84.44 104.89,-72 133.69,-84.44 133.66,-104.56 76.13,-104.56 76.1,-84.44"/>
<text text-anchor="middle" x="104.89" y="-85.8" font-family="Times,serif" font-size="14.00">i32</text>
</g>
<!-- 4&#45;&gt;5 -->
<g id="edge5" class="edge" data-name="4-&gt;5">

<path fill="none" stroke="black" d="M104.14,-143.7C104.26,-135.36 104.41,-125.22 104.54,-116.06"/>
<polygon fill="black" stroke="black" points="108.03,-116.39 104.68,-106.34 101.03,-116.29 108.03,-116.39"/>
</g>
<!-- 8 -->
<g id="node9" class="node" pointer-events="visible" data-name="8">

<polygon fill="#e278e6" stroke="black" points="274.89,-180 220.89,-180 220.89,-176 216.89,-176 216.89,-172 220.89,-172 220.89,-152 216.89,-152 216.89,-148 220.89,-148 220.89,-144 274.89,-144 274.89,-180"/>
<polyline fill="none" stroke="black" points="220.89,-152 224.89,-152 224.89,-148 220.89,-148"/>
<text text-anchor="middle" x="247.89" y="-157.8" font-family="Times,serif" font-size="14.00">x : i32</text><polyline fill="none" stroke="black" points="220.89,-176 224.89,-176 224.89,-172 220.89,-172"/>

</g>
<!-- 7&#45;&gt;8 -->
<g id="edge8" class="edge" data-name="7-&gt;8">

<path fill="none" stroke="black" d="M306.61,-215.7C297.24,-207.28 285.8,-197.02 275.52,-187.79"/>
<polygon fill="black" stroke="black" points="278.13,-185.43 268.35,-181.36 273.46,-190.64 278.13,-185.43"/>
</g>
<!-- 10 -->
<g id="node11" class="node" pointer-events="visible" data-name="10">

<polygon fill="#e278e6" stroke="black" points="346.89,-180 292.89,-180 292.89,-176 288.89,-176 288.89,-172 292.89,-172 292.89,-152 288.89,-152 288.89,-148 292.89,-148 292.89,-144 346.89,-144 346.89,-180"/>
<polyline fill="none" stroke="black" points="292.89,-152 296.89,-152 296.89,-148 292.89,-148"/>
<text text-anchor="middle" x="319.89" y="-157.8" font-family="Times,serif" font-size="14.00">y : i32</text><polyline fill="none" stroke="black" points="292.89,-176 296.89,-176 296.89,-172 292.89,-172"/>

</g>
<!-- 7&#45;&gt;10 -->
<g id="edge10" class="edge" data-name="7-&gt;10">

<path fill="none" stroke="black" d="M324.41,-215.7C323.79,-208.41 323.04,-199.73 322.34,-191.54"/>
<polygon fill="black" stroke="black" points="325.83,-191.28 321.49,-181.61 318.86,-191.87 325.83,-191.28"/>
</g>
<!-- 12 -->
<g id="node13" class="node" pointer-events="visible" data-name="12">

<polygon fill="#b9e2b9" stroke="black" points="400.89,-174 364.89,-174 364.89,-150 400.89,-150 400.89,-144 418.89,-162 400.89,-180 400.89,-174"/>
<text text-anchor="middle" x="391.89" y="-157.8" font-family="Times,serif" font-size="14.00">i32</text>
</g>
<!-- 7&#45;&gt;12 -->
<g id="edge12" class="edge" data-name="7-&gt;12">

<path fill="none" stroke="black" d="M342.21,-215.7C349.96,-207.47 359.38,-197.48 367.93,-188.42"/>
<polygon fill="black" stroke="black" points="370.42,-190.88 374.73,-181.21 365.32,-186.08 370.42,-190.88"/>
</g>
<!-- 9 -->
<g id="node10" class="node" pointer-events="visible" data-name="9">

<polygon fill="#47dfb9" stroke="black" points="217.1,-84.44 245.89,-72 274.69,-84.44 274.66,-104.56 217.13,-104.56 217.1,-84.44"/>
<text text-anchor="middle" x="245.89" y="-85.8" font-family="Times,serif" font-size="14.00">i32</text>
</g>
<!-- 8&#45;&gt;9 -->
<g id="edge9" class="edge" data-name="8-&gt;9">

<path fill="none" stroke="black" d="M247.4,-143.7C247.16,-135.36 246.87,-125.22 246.61,-116.06"/>
<polygon fill="black" stroke="black" points="250.12,-116.23 246.33,-106.34 243.12,-116.43 250.12,-116.23"/>
</g>
<!-- 11 -->
<g id="node12" class="node" pointer-events="visible" data-name="11">

<polygon fill="#47dfb9" stroke="black" points="293.1,-84.44 321.89,-72 350.69,-84.44 350.66,-104.56 293.13,-104.56 293.1,-84.44"/>
<text text-anchor="middle" x="321.89" y="-85.8" font-family="Times,serif" font-size="14.00">i32</text>
</g>
<!-- 10&#45;&gt;11 -->
<g id="edge11" class="edge" data-name="10-&gt;11">

<path fill="none" stroke="black" d="M320.39,-143.7C320.63,-135.36 320.92,-125.22 321.18,-116.06"/>
<polygon fill="black" stroke="black" points="324.67,-116.43 321.46,-106.34 317.67,-116.23 324.67,-116.43"/>
</g>
<!-- 14 -->
<g id="node15" class="node" pointer-events="visible" data-name="14">

<polygon fill="#b9e2b9" stroke="black" points="472.89,-174 436.89,-174 436.89,-150 472.89,-150 472.89,-144 490.89,-162 472.89,-180 472.89,-174"/>
<text text-anchor="middle" x="463.89" y="-157.8" font-family="Times,serif" font-size="14.00">i32</text>
</g>
<!-- 13&#45;&gt;14 -->
<g id="edge14" class="edge" data-name="13-&gt;14">

<path fill="none" stroke="black" d="M463.89,-215.7C463.89,-208.41 463.89,-199.73 463.89,-191.54"/>
<polygon fill="black" stroke="black" points="467.39,-191.62 463.89,-181.62 460.39,-191.62 467.39,-191.62"/>
</g>
<!-- 15 -->
<g id="node16" class="node" pointer-events="visible" data-name="15">

<polygon fill="#84b6ff" stroke="black" points="594.87,-174 508.92,-174 508.92,-150 594.87,-150 594.87,-174"/>
<polyline fill="none" stroke="black" points="511.92,-160.5 514.92,-163.5"/>
<polyline fill="none" stroke="black" points="511.92,-153 591.87,-153"/>
<text text-anchor="middle" x="551.89" y="-157.8" font-family="Times,serif" font-size="14.00">internal_add</text><polyline fill="none" stroke="black" points="511.92,-163.5 514.92,-160.5"/>

</g>
<!-- 13&#45;&gt;15 -->
<g id="edge15" class="edge" data-name="13-&gt;15">

<path fill="none" stroke="black" d="M485.65,-215.7C496.33,-207.2 509.39,-196.81 521.08,-187.51"/>
<polygon fill="black" stroke="black" points="523.26,-190.25 528.9,-181.29 518.9,-184.78 523.26,-190.25"/>
</g>
<!-- 16 -->
<g id="node17" class="node" pointer-events="visible" data-name="16">

<polygon fill="#e278e6" stroke="black" points="504.89,-108 446.9,-108 446.9,-104 442.9,-104 442.9,-100 446.9,-100 446.9,-80 442.9,-80 442.9,-76 446.9,-76 446.9,-72 504.89,-72 504.89,-108"/>
<polyline fill="none" stroke="black" points="446.9,-80 450.9,-80 450.9,-76 446.9,-76"/>
<text text-anchor="middle" x="475.89" y="-85.8" font-family="Times,serif" font-size="14.00">xa : i32</text><polyline fill="none" stroke="black" points="446.9,-104 450.9,-104 450.9,-100 446.9,-100"/>

</g>
<!-- 15&#45;&gt;16 -->
<g id="edge16" class="edge" data-name="15-&gt;16">

<path fill="none" stroke="black" d="M533.11,-143.7C524.06,-135.37 513.05,-125.22 503.11,-116.07"/>
<polygon fill="black" stroke="black" points="505.57,-113.57 495.84,-109.37 500.83,-118.72 505.57,-113.57"/>
</g>
<!-- 18 -->
<g id="node19" class="node" pointer-events="visible" data-name="18">

<polygon fill="#e278e6" stroke="black" points="580.89,-108 522.9,-108 522.9,-104 518.9,-104 518.9,-100 522.9,-100 522.9,-80 518.9,-80 518.9,-76 522.9,-76 522.9,-72 580.89,-72 580.89,-108"/>
<polyline fill="none" stroke="black" points="522.9,-80 526.9,-80 526.9,-76 522.9,-76"/>
<text text-anchor="middle" x="551.89" y="-85.8" font-family="Times,serif" font-size="14.00">ya : i32</text><polyline fill="none" stroke="black" points="522.9,-104 526.9,-104 526.9,-100 522.9,-100"/>

</g>
<!-- 15&#45;&gt;18 -->
<g id="edge18" class="edge" data-name="15-&gt;18">

<path fill="none" stroke="black" d="M551.89,-143.7C551.89,-136.41 551.89,-127.73 551.89,-119.54"/>
<polygon fill="black" stroke="black" points="555.39,-119.62 551.89,-109.62 548.39,-119.62 555.39,-119.62"/>
</g>
<!-- 20 -->
<g id="node21" class="node" pointer-events="visible" data-name="20">

<polygon fill="#b9e2b9" stroke="black" points="634.89,-102 598.89,-102 598.89,-78 634.89,-78 634.89,-72 652.89,-90 634.89,-108 634.89,-102"/>
<text text-anchor="middle" x="625.89" y="-85.8" font-family="Times,serif" font-size="14.00">i32</text>
</g>
<!-- 15&#45;&gt;20 -->
<g id="edge20" class="edge" data-name="15-&gt;20">

<path fill="none" stroke="black" d="M570.19,-143.7C578.99,-135.37 589.72,-125.22 599.39,-116.07"/>
<polygon fill="black" stroke="black" points="601.6,-118.8 606.46,-109.39 596.79,-113.72 601.6,-118.8"/>
</g>
<!-- 17 -->
<g id="node18" class="node" pointer-events="visible" data-name="17">

<polygon fill="#47dfb9" stroke="black" points="447.1,-12.44 475.89,0 504.69,-12.44 504.66,-32.56 447.13,-32.56 447.1,-12.44"/>
<text text-anchor="middle" x="475.89" y="-13.8" font-family="Times,serif" font-size="14.00">i32</text>
</g>
<!-- 16&#45;&gt;17 -->
<g id="edge17" class="edge" data-name="16-&gt;17">

<path fill="none" stroke="black" d="M475.89,-71.7C475.89,-63.36 475.89,-53.22 475.89,-44.06"/>
<polygon fill="black" stroke="black" points="479.39,-44.34 475.89,-34.34 472.39,-44.34 479.39,-44.34"/>
</g>
<!-- 19 -->
<g id="node20" class="node" pointer-events="visible" data-name="19">

<polygon fill="#47dfb9" stroke="black" points="523.1,-12.44 551.89,0 580.69,-12.44 580.66,-32.56 523.13,-32.56 523.1,-12.44"/>
<text text-anchor="middle" x="551.89" y="-13.8" font-family="Times,serif" font-size="14.00">i32</text>
</g>
<!-- 18&#45;&gt;19 -->
<g id="edge19" class="edge" data-name="18-&gt;19">

<path fill="none" stroke="black" d="M551.89,-71.7C551.89,-63.36 551.89,-53.22 551.89,-44.06"/>
<polygon fill="black" stroke="black" points="555.39,-44.34 551.89,-34.34 548.39,-44.34 555.39,-44.34"/>
</g>
<!-- 22 -->
<g id="node23" class="node" pointer-events="visible" data-name="22">

<polygon fill="#b9e2b9" stroke="black" points="648.89,-174 612.89,-174 612.89,-150 648.89,-150 648.89,-144 666.89,-162 648.89,-180 648.89,-174"/>
<text text-anchor="middle" x="639.89" y="-157.8" font-family="Times,serif" font-size="14.00">void</text>
</g>
<!-- 21&#45;&gt;22 -->
<g id="edge22" class="edge" data-name="21-&gt;22">

<path fill="none" stroke="black" d="M608.28,-215.7C612.96,-207.9 618.59,-198.51 623.8,-189.83"/>
<polygon fill="black" stroke="black" points="626.71,-191.78 628.85,-181.4 620.71,-188.18 626.71,-191.78"/>
</g>
</g>
</svg>